<svg xmlns="http://www.w3.org/2000/svg" xmlns:xlink="http://www.w3.org/1999/xlink" width="500" zoomAndPan="magnify" viewBox="0 0 375 149.999998" height="200" preserveAspectRatio="xMidYMid meet" version="1.0"><rect x="-37.5" width="450" fill="#ffffff" y="-15" height="179.999997" fill-opacity="1"/><rect x="-37.5" width="450" fill="#ffffff" y="-15" height="179.999997" fill-opacity="1"/><rect x="-37.5" width="450" fill="#ffffff" y="-15" height="179.999997" fill-opacity="1"/><path fill="#b1663d" d="M 41.871094 20.917969 C 41.261719 21.320312 36.667969 24.140625 31.660156 27.179688 C 25.292969 31.039062 18.933594 34.902344 12.578125 38.765625 L 2.601562 44.828125 L 2.597656 52.058594 L 2.597656 59.292969 L 6.246094 57.050781 C 12.996094 52.902344 41.980469 35.265625 43.171875 34.585938 C 43.277344 34.523438 45.015625 35.453125 47.027344 36.65625 C 49.039062 37.855469 58.285156 43.371094 67.570312 48.910156 L 84.449219 58.976562 L 84.449219 44.738281 L 77.351562 40.480469 C 73.449219 38.140625 64.320312 32.660156 57.070312 28.296875 C 49.816406 23.941406 43.679688 20.328125 43.425781 20.277344 C 43.175781 20.222656 42.476562 20.511719 41.871094 20.917969 " fill-opacity="1" fill-rule="nonzero"/><path fill="#394145" d="M 55.722656 55.476562 L 55.648438 64.371094 L 54.546875 64.699219 C 53.300781 65.066406 27.453125 73.351562 26.917969 73.554688 C 26.644531 73.660156 26.574219 71.140625 26.574219 61.53125 C 26.574219 54.847656 26.523438 49.375 26.457031 49.375 C 26.394531 49.375 25 50.222656 23.359375 51.257812 C 20.921875 52.789062 18.484375 54.3125 16.035156 55.824219 L 11.695312 58.507812 L 11.554688 98.5 L 7.078125 100.328125 L 2.605469 102.152344 L 2.601562 106.632812 L 2.597656 111.109375 L 26.574219 111.109375 L 26.574219 87.714844 L 30.777344 86.347656 L 45.195312 81.644531 C 50.8125 79.8125 55.496094 78.316406 55.597656 78.316406 C 55.703125 78.316406 55.789062 85.691406 55.789062 94.710938 L 55.789062 111.109375 L 84.449219 111.109375 L 84.449219 98.15625 L 70.667969 98.15625 L 70.664062 76.867188 L 70.652344 55.574219 L 63.460938 51.167969 C 59.503906 48.742188 56.160156 46.714844 56.03125 46.667969 C 55.902344 46.621094 55.761719 50.582031 55.722656 55.472656 " fill-opacity="1" fill-rule="nonzero"/><path fill="#394145" d="M 263.855469 42.644531 C 261.417969 43.511719 259.847656 44.652344 258.667969 46.40625 C 256.738281 49.292969 256.632812 50.207031 256.742188 63.144531 C 256.839844 74.296875 256.878906 74.945312 257.5625 76.425781 C 259.246094 80.066406 262.46875 82.277344 266.746094 82.738281 C 270.175781 83.101562 273.28125 82.652344 275.773438 81.425781 C 278.210938 80.226562 279.652344 78.632812 280.609375 76.070312 C 281.246094 74.367188 281.296875 73.429688 281.328125 62.433594 C 281.367188 51.007812 281.34375 50.558594 280.625 48.714844 C 279.691406 46.3125 277.710938 44.253906 275.25 43.105469 C 273.601562 42.34375 272.820312 42.210938 269.472656 42.125 C 266.382812 42.042969 265.246094 42.148438 263.855469 42.644531 " fill-opacity="1" fill-rule="nonzero"/><path fill="#394145" d="M 354.5 42.507812 C 351.496094 43.457031 349.640625 45.015625 348.242188 47.761719 C 347.65625 48.910156 347.433594 50.015625 347.328125 52.34375 C 347.035156 58.617188 348.640625 60.996094 355.855469 64.933594 C 361.546875 68.046875 363.085938 69.550781 363.085938 72.007812 C 363.085938 74.402344 361.304688 76.046875 358.707031 76.046875 C 355.980469 76.046875 354.332031 74.402344 354.332031 71.6875 L 354.332031 70.324219 L 346.585938 70.324219 L 346.585938 72.28125 C 346.585938 76.644531 348.726562 80.15625 352.40625 81.820312 C 353.960938 82.523438 354.664062 82.613281 358.542969 82.613281 C 362.65625 82.613281 363.035156 82.558594 364.839844 81.671875 C 367.328125 80.449219 369.648438 77.886719 370.324219 75.617188 C 370.972656 73.429688 370.972656 69.578125 370.328125 67.402344 C 369.535156 64.734375 367.792969 63.074219 362.453125 59.921875 C 359.847656 58.375 357.183594 56.535156 356.542969 55.828125 C 353.59375 52.5625 355.398438 48.265625 359.449219 48.910156 C 361.9375 49.3125 363.078125 50.773438 363.085938 53.570312 L 363.085938 54.496094 L 370.246094 54.496094 L 370.089844 51.839844 C 369.714844 45.390625 365.808594 42.003906 358.800781 42.058594 C 357.175781 42.074219 355.242188 42.273438 354.5 42.507812 " fill-opacity="1" fill-rule="nonzero"/><path fill="#394145" d="M 101.175781 62.410156 L 101.140625 82.109375 L 109.183594 82.109375 L 109.183594 66.28125 L 117.9375 66.28125 L 117.9375 82.109375 L 125.683594 82.109375 L 125.683594 43.046875 L 117.9375 43.046875 L 117.9375 58.871094 L 109.183594 58.871094 L 109.183594 42.707031 L 101.207031 42.707031 Z M 101.175781 62.410156 " fill-opacity="1" fill-rule="nonzero"/><path fill="#394145" d="M 132.492188 58.957031 C 132.585938 75.195312 132.585938 75.207031 133.367188 76.777344 C 135.601562 81.273438 140.054688 83.285156 146.566406 82.746094 C 151.019531 82.382812 154.105469 80.367188 155.785156 76.738281 C 156.472656 75.257812 156.5 74.660156 156.589844 58.957031 L 156.6875 42.707031 L 148.949219 42.707031 L 148.847656 58.117188 C 148.757812 72.179688 148.699219 73.597656 148.15625 74.394531 C 147.402344 75.507812 146.210938 76.046875 144.539062 76.046875 C 142.867188 76.046875 141.679688 75.507812 140.925781 74.394531 C 140.382812 73.597656 140.320312 72.183594 140.234375 58.117188 L 140.136719 42.707031 L 132.394531 42.707031 Z M 132.492188 58.957031 " fill-opacity="1" fill-rule="nonzero"/><path fill="#394145" d="M 163.394531 62.410156 L 163.394531 82.109375 L 184.277344 82.109375 L 184.277344 75.035156 L 171.144531 75.035156 L 171.144531 42.707031 L 163.394531 42.707031 Z M 163.394531 62.410156 " fill-opacity="1" fill-rule="nonzero"/><path fill="#394145" d="M 189.324219 62.410156 L 189.324219 82.109375 L 210.207031 82.109375 L 210.207031 75.035156 L 197.234375 75.035156 L 197.238281 59.628906 C 197.238281 51.15625 197.183594 43.882812 197.117188 43.464844 C 197 42.734375 196.871094 42.707031 193.160156 42.707031 L 189.324219 42.707031 Z M 189.324219 62.410156 " fill-opacity="1" fill-rule="nonzero"/><path fill="#394145" d="M 213.621094 61.988281 C 215.621094 72.59375 217.265625 81.457031 217.265625 81.6875 C 217.273438 82.003906 218.414062 82.109375 221.820312 82.109375 C 224.320312 82.109375 226.371094 81.996094 226.371094 81.855469 C 226.371094 81.363281 231.015625 57.480469 231.132812 57.363281 C 231.195312 57.296875 232.382812 62.917969 233.769531 69.847656 L 236.28125 82.445312 L 240.585938 82.445312 C 242.953125 82.445312 244.890625 82.382812 244.890625 82.308594 C 244.890625 82.140625 250.28125 53.832031 251.449219 47.882812 C 251.914062 45.5 252.296875 43.363281 252.296875 43.132812 C 252.296875 42.816406 251.277344 42.707031 248.300781 42.707031 L 244.304688 42.707031 L 244.074219 44.140625 C 243.949219 44.929688 243.019531 51.167969 242.011719 58.003906 C 240.335938 69.378906 239.839844 72.117188 239.839844 70 C 239.839844 69.378906 235.984375 47.195312 235.257812 43.636719 L 235.070312 42.707031 L 231.246094 42.707031 C 227.894531 42.707031 227.402344 42.785156 227.25 43.300781 C 227.101562 43.789062 222.394531 69.726562 222.296875 70.558594 C 222.261719 70.84375 218.894531 47.953125 218.480469 44.648438 L 218.238281 42.707031 L 209.984375 42.707031 Z M 213.621094 61.988281 " fill-opacity="1" fill-rule="nonzero"/><path fill="#394145" d="M 287.824219 62.386719 L 287.824219 82.109375 L 295.738281 82.109375 L 295.738281 67.628906 L 299.019531 67.628906 L 301.703125 74.785156 L 304.390625 81.941406 L 308.480469 82.035156 C 310.734375 82.085938 312.574219 82.054688 312.574219 81.960938 C 312.574219 81.867188 311.261719 78.273438 309.65625 73.972656 C 307.398438 67.929688 306.84375 66.117188 307.214844 66.003906 C 307.476562 65.921875 308.457031 65.082031 309.390625 64.128906 C 311.6875 61.785156 312.378906 59.621094 312.351562 54.804688 C 312.324219 50.460938 311.722656 48.417969 309.820312 46.257812 C 309.066406 45.398438 307.671875 44.289062 306.722656 43.789062 L 304.996094 42.878906 L 296.414062 42.773438 L 287.824219 42.667969 Z M 287.824219 62.386719 " fill-opacity="1" fill-rule="nonzero"/><path fill="#394145" d="M 318.382812 62.410156 L 318.335938 82.109375 L 326.378906 82.109375 L 326.378906 70.644531 L 327.769531 69.136719 C 328.535156 68.308594 329.265625 67.628906 329.398438 67.628906 C 329.53125 67.628906 331.125 70.886719 332.945312 74.871094 L 336.25 82.109375 L 340.261719 82.109375 C 344.128906 82.109375 344.265625 82.082031 344.058594 81.433594 C 343.941406 81.058594 341.734375 76.253906 339.152344 70.753906 C 336.574219 65.25 334.460938 60.53125 334.460938 60.261719 C 334.460938 59.992188 336.507812 56.023438 339.007812 51.441406 C 341.507812 46.855469 343.554688 43.015625 343.554688 42.910156 C 343.554688 42.796875 341.699219 42.710938 339.429688 42.71875 L 335.304688 42.726562 L 330.925781 51.296875 L 326.546875 59.863281 L 326.457031 51.289062 L 326.367188 42.710938 L 318.429688 42.710938 Z M 318.382812 62.410156 " fill-opacity="1" fill-rule="nonzero"/><path fill="#ffffff" d="M 266.882812 49.265625 C 264.679688 50.222656 264.585938 50.75 264.585938 62.578125 C 264.585938 70.722656 264.691406 73.367188 265.03125 73.960938 C 266.097656 75.828125 269.367188 76.640625 271.460938 75.558594 C 273.390625 74.5625 273.515625 73.777344 273.515625 62.527344 C 273.507812 53.472656 273.445312 52.171875 272.925781 51.128906 C 271.898438 49.074219 269.222656 48.246094 266.882812 49.265625 " fill-opacity="1" fill-rule="nonzero"/><path fill="#ffffff" d="M 295.738281 55.128906 L 295.738281 60.554688 L 298.441406 60.554688 C 303.113281 60.554688 304.582031 59.316406 304.628906 55.335938 C 304.679688 51.175781 303.5 50.050781 298.851562 49.84375 L 295.738281 49.703125 Z M 295.738281 55.128906 " fill-opacity="1" fill-rule="nonzero"/><path fill="#516370" d="M 137.132812 96.648438 C 134.089844 97.511719 132.332031 100.175781 132.355469 103.890625 C 132.371094 106.675781 133.34375 108.765625 135.210938 109.996094 C 136.394531 110.777344 136.921875 110.902344 139.152344 110.902344 C 141.457031 110.902344 141.863281 110.800781 142.96875 109.957031 C 144.222656 109 145.214844 107.492188 145.214844 106.539062 C 145.214844 106.144531 144.84375 106.015625 143.699219 106.015625 C 142.863281 106.015625 142.183594 106.179688 142.183594 106.367188 C 142.183594 106.5625 141.8125 107.09375 141.355469 107.550781 C 140.359375 108.542969 138.058594 108.683594 136.832031 107.828125 C 135.257812 106.71875 134.648438 103.71875 135.570312 101.542969 C 136.851562 98.511719 140.667969 98.074219 141.914062 100.816406 C 142.230469 101.503906 142.53125 101.640625 143.75 101.640625 C 145.386719 101.640625 145.566406 101.273438 144.722656 99.644531 C 144.039062 98.324219 142.402344 97.019531 140.910156 96.605469 C 139.421875 96.191406 138.707031 96.199219 137.132812 96.648438 " fill-opacity="1" fill-rule="nonzero"/><path fill="#516370" d="M 156.445312 96.574219 C 154.464844 97.046875 153.03125 98.21875 152.09375 100.140625 C 151.324219 101.714844 151.214844 102.296875 151.332031 104.316406 C 151.441406 106.246094 151.644531 106.917969 152.46875 108.105469 C 154.898438 111.605469 159.929688 112.085938 162.910156 109.109375 C 164.417969 107.601562 164.875 106.375 164.871094 103.828125 C 164.871094 100.039062 163.113281 97.515625 159.863281 96.625 C 158.363281 96.214844 157.976562 96.210938 156.445312 96.574219 " fill-opacity="1" fill-rule="nonzero"/><path fill="#516370" d="M 194.101562 96.574219 C 191.75 97.160156 190.289062 99.617188 191.007812 101.796875 C 191.46875 103.195312 192.765625 104.050781 195.625 104.84375 C 198.1875 105.558594 199.023438 106.335938 198.488281 107.519531 C 197.746094 109.144531 194.433594 108.933594 193.648438 107.203125 C 193.316406 106.480469 193.035156 106.355469 191.761719 106.355469 C 190.296875 106.355469 190.269531 106.375 190.492188 107.28125 C 191.089844 109.707031 193.179688 111.074219 196.300781 111.0625 C 198.964844 111.054688 200.769531 110.035156 201.417969 108.175781 C 202.34375 105.511719 200.910156 103.410156 197.542969 102.496094 C 194.945312 101.796875 193.902344 101.246094 193.761719 100.515625 C 193.570312 99.523438 194.359375 98.945312 195.910156 98.945312 C 197.054688 98.945312 197.496094 99.121094 198.023438 99.789062 C 198.535156 100.441406 198.992188 100.628906 200.066406 100.628906 C 200.949219 100.628906 201.449219 100.476562 201.449219 100.207031 C 201.445312 99.414062 200.128906 97.632812 199.1875 97.144531 C 197.945312 96.5 195.5 96.226562 194.101562 96.574219 " fill-opacity="1" fill-rule="nonzero"/><path fill="#516370" d="M 265.601562 96.742188 C 259.867188 98.839844 259.476562 107.742188 264.992188 110.523438 C 267.726562 111.902344 272.011719 110.726562 273.421875 108.207031 C 274.507812 106.265625 274.421875 106.015625 272.679688 106.015625 C 271.359375 106.015625 271.109375 106.140625 270.671875 106.984375 C 270.082031 108.121094 269.554688 108.375 267.765625 108.375 C 266.800781 108.375 266.167969 108.125 265.386719 107.421875 C 264.488281 106.621094 264.292969 106.171875 264.160156 104.597656 C 263.875 101.136719 265.359375 98.953125 267.996094 98.945312 C 269.167969 98.945312 270.667969 99.964844 270.988281 100.976562 C 271.160156 101.507812 271.503906 101.640625 272.730469 101.640625 C 274.226562 101.640625 274.253906 101.625 274.027344 100.714844 C 273.714844 99.457031 272.332031 97.703125 271.191406 97.113281 C 269.71875 96.351562 267.132812 96.179688 265.601562 96.742188 " fill-opacity="1" fill-rule="nonzero"/><path fill="#516370" d="M 312.746094 96.417969 C 312.558594 96.480469 311.988281 96.625 311.472656 96.738281 C 310.085938 97.042969 307.976562 99.121094 307.328125 100.820312 C 306.476562 103.054688 306.816406 106.335938 308.082031 108.164062 C 309.511719 110.21875 311.542969 111.15625 314.152344 110.964844 C 316.730469 110.777344 318.335938 109.847656 319.492188 107.878906 C 321.320312 104.757812 320.792969 100.398438 318.328125 98.167969 C 316.707031 96.707031 314.222656 95.925781 312.746094 96.417969 " fill-opacity="1" fill-rule="nonzero"/><path fill="#516370" d="M 171.476562 103.828125 L 171.476562 111.070312 L 174.152344 111.070312 L 174.246094 106.296875 L 174.339844 101.519531 L 177.585938 106.210938 C 180.808594 110.867188 180.84375 110.902344 182.21875 110.996094 L 183.605469 111.085938 L 183.605469 96.585938 L 180.925781 96.585938 L 180.835938 101.273438 L 180.742188 105.957031 L 177.542969 101.289062 L 174.339844 96.625 L 172.910156 96.605469 L 171.476562 96.585938 Z M 171.476562 103.828125 " fill-opacity="1" fill-rule="nonzero"/><path fill="#516370" d="M 207.175781 97.933594 L 207.175781 99.28125 L 211.886719 99.28125 L 211.886719 111.070312 L 214.582031 111.070312 L 214.582031 99.28125 L 219.128906 99.28125 L 219.128906 96.585938 L 207.175781 96.585938 Z M 207.175781 97.933594 " fill-opacity="1" fill-rule="nonzero"/><path fill="#516370" d="M 225.355469 103.847656 L 225.355469 111.109375 L 226.789062 111.003906 L 228.21875 110.902344 L 228.234375 108.542969 L 228.246094 106.183594 L 229.507812 106.082031 L 230.769531 105.976562 L 231.949219 108.523438 L 233.121094 111.070312 L 234.824219 111.070312 C 235.761719 111.070312 236.472656 110.953125 236.414062 110.816406 C 236.347656 110.679688 235.734375 109.476562 235.042969 108.144531 L 233.792969 105.734375 L 234.964844 104.5625 C 236.039062 103.488281 236.132812 103.226562 236.132812 101.382812 C 236.132812 97.683594 234.488281 96.589844 228.90625 96.589844 L 225.355469 96.589844 Z M 225.355469 103.847656 " fill-opacity="1" fill-rule="nonzero"/><path fill="#516370" d="M 243.203125 101.894531 C 243.207031 107.734375 243.492188 108.851562 245.320312 110.195312 C 246.78125 111.265625 250.371094 111.332031 252.132812 110.320312 C 254.351562 109.039062 254.652344 108.023438 254.65625 101.894531 L 254.65625 96.585938 L 251.625 96.585938 L 251.625 101.808594 C 251.625 106.582031 251.566406 107.085938 250.949219 107.699219 C 250.503906 108.148438 249.828125 108.375 248.929688 108.375 C 248.03125 108.375 247.355469 108.148438 246.90625 107.699219 C 246.292969 107.085938 246.238281 106.582031 246.238281 101.808594 L 246.238281 96.585938 L 243.203125 96.585938 Z M 243.203125 101.894531 " fill-opacity="1" fill-rule="nonzero"/><path fill="#516370" d="M 279.234375 97.933594 L 279.234375 99.28125 L 283.601562 99.28125 L 283.6875 105.058594 L 283.78125 110.828125 L 285.046875 110.867188 L 286.308594 110.902344 L 286.308594 99.28125 L 291.023438 99.28125 L 291.023438 96.585938 L 279.234375 96.585938 Z M 279.234375 97.933594 " fill-opacity="1" fill-rule="nonzero"/><path fill="#516370" d="M 297.421875 103.847656 L 297.421875 111.109375 L 298.851562 111.003906 L 300.285156 110.902344 L 300.375 103.746094 L 300.46875 96.585938 L 297.421875 96.585938 Z M 297.421875 103.847656 " fill-opacity="1" fill-rule="nonzero"/><path fill="#516370" d="M 327.054688 103.828125 L 327.054688 111.070312 L 329.730469 111.070312 L 329.917969 101.601562 L 333.113281 106.25 L 336.316406 110.902344 L 337.746094 111.003906 L 339.175781 111.109375 L 339.175781 96.585938 L 336.5 96.585938 L 336.316406 106.09375 L 333.113281 101.355469 L 329.917969 96.617188 L 328.484375 96.601562 L 327.054688 96.585938 Z M 327.054688 103.828125 " fill-opacity="1" fill-rule="nonzero"/><path fill="#ffffff" d="M 156.496094 99.261719 C 153.640625 100.433594 153.328125 105.78125 155.988281 107.945312 C 156.730469 108.542969 159.40625 108.46875 160.328125 107.828125 C 161.914062 106.714844 162.507812 103.722656 161.585938 101.519531 C 160.699219 99.398438 158.523438 98.433594 156.496094 99.261719 " fill-opacity="1" fill-rule="nonzero"/><path fill="#ffffff" d="M 228.300781 99.15625 C 228.203125 99.316406 228.144531 100.355469 228.171875 101.457031 L 228.21875 103.464844 L 230.242188 103.40625 C 231.851562 103.359375 232.382812 103.195312 232.847656 102.621094 C 234.230469 100.933594 233.121094 99.339844 230.371094 99.054688 C 229.332031 98.953125 228.398438 98.992188 228.300781 99.15625 " fill-opacity="1" fill-rule="nonzero"/><path fill="#ffffff" d="M 311.707031 99.578125 C 310.289062 100.445312 309.765625 101.867188 309.949219 104.382812 C 310.078125 106.195312 310.234375 106.578125 311.175781 107.414062 C 313.15625 109.1875 316.152344 108.554688 317.15625 106.152344 C 319.015625 101.699219 315.394531 97.332031 311.707031 99.578125 " fill-opacity="1" fill-rule="nonzero"/></svg>